<svg version="1.1" class="clearos-svg clearfoundation app-vendor-clearfoundation app-free app-category-cloud app-sub-category-updates" viewBox="0 0 400 400" preserveAspectRatio="xMinYMin" xmlns="http://www.w3.org/2000/svg" xmlns:xlink= "http://www.w3.org/1999/xlink">
<path fill="#AA0707" d="M91.666,184.647"/>
<path fill="#AA0707" d="M123.245,247.805"/>
<path fill="#AA0707" d="M91.666,184.647"/>
<path fill="#AA0707" d="M123.245,247.805"/>
<g>
	<polygon fill="#686868" points="200.091,182.5 243.053,251.35 396.219,155.682 353.021,86.438 199.854,182.098 199.949,182.255 
		46.964,86.879 3.781,156.108 157.034,251.665 	"/>
	<polygon fill="#686868" points="353.021,193.055 243.384,261.534 200.753,193.142 199.822,193.733 157.39,261.834 47.209,193.142 
		47.319,301.706 48.179,301.706 47.784,302.146 200.43,397.216 353.052,302.146 352.674,301.706 353.146,301.706 	"/>
	<polygon fill="#686868" points="149.498,148.272 249.88,148.272 249.438,93.919 325.241,93.643 199.657,2.784 73.23,93.415 
		149.498,93.462 	"/>
</g>
</svg>
